<svg id="Layer_2" data-name="Layer 2" xmlns="http://www.w3.org/2000/svg" viewBox="0 0 49 82.76"><defs><style>.cls-1{fill:none;stroke:#f908f9;stroke-linecap:round;stroke-miterlimit:10;stroke-width:2px;}</style></defs><title>Logo</title><path class="cls-1" d="M5.61,32.25S6.51-1.29,39.76,1.12"/><path class="cls-1" d="M10.74,30.9a47.43,47.43,0,0,1,6.89-16.17c2.54-3.7,5.86-7,10.1-8.72,3.9-1.55,8.39-2.48,12.08.12C44.64,9.54,44,15.87,44,21.07"/><path class="cls-1" d="M15.62,30.91c1.5-4.2,3.1-8.46,5.92-12a16.89,16.89,0,0,1,8.2-5.78c2.45-.71,5.42-.57,7.1,1.34a7.81,7.81,0,0,1,1.56,3.78A28.9,28.9,0,0,1,37,33.9"/><path class="cls-1" d="M19.51,28.93s12.69-15.72,13.9,0"/><ellipse class="cls-1" cx="11.84" cy="53.66" rx="10.84" ry="13.16"/><ellipse class="cls-1" cx="38.53" cy="52.65" rx="9.47" ry="13.16"/><path class="cls-1" d="M17.06,78.06q5.64,7.39,11.28,0"/><path class="cls-1" d="M22.68,53.66c2.16-1.91,4.05-2.36,5.77-1.77"/></svg>