<svg id="Layer_2" data-name="Layer 2" xmlns="http://www.w3.org/2000/svg" viewBox="0 0 40.41 34.9"><defs><style>.cls-1{fill:none;stroke:#ffffff;stroke-linecap:round;stroke-miterlimit:10;stroke-width:2px;}</style></defs><title>Smile</title><path class="cls-1" d="M1,32.25S1.91-1.29,35.15,1.12"/><path class="cls-1" d="M6.14,30.9A47.41,47.41,0,0,1,13,14.73c2.54-3.7,5.86-7,10.1-8.72,3.9-1.55,8.4-2.48,12.08.12,4.84,3.41,4.18,9.74,4.18,14.94"/><path class="cls-1" d="M11,30.91c1.51-4.2,3.1-8.46,5.92-12a16.92,16.92,0,0,1,8.21-5.78c2.44-.71,5.42-.57,7.1,1.34a7.79,7.79,0,0,1,1.55,3.78A28.8,28.8,0,0,1,32.42,33.9"/><path class="cls-1" d="M14.9,28.93s12.7-15.72,13.91,0"/></svg>
