<svg id="Layer_2" data-name="Layer 2" xmlns="http://www.w3.org/2000/svg" viewBox="0 0 179.87 82.76"><defs><style>.cls-1{fill:none;stroke:#ffffff;stroke-linecap:round;stroke-miterlimit:10;stroke-width:2px;}.cls-2{fill:#ffffff;}</style></defs><title>Stockmal_Logo</title><path class="cls-1" d="M21.58,32a20.53,20.53,0,0,0-17,3,9.44,9.44,0,0,0-3,3.16,4.54,4.54,0,0,0-.11,4.22c1.27,2.25,4.88,2.74,7.17,3.09,4.3.66,8.11,1,12.06,3.09,2.71,1.44,4.76,3.56,3.36,6.81a10.2,10.2,0,0,1-3.13,3.72A25.52,25.52,0,0,1,9.67,64.26"/><path class="cls-1" d="M28,46.1a32.67,32.67,0,0,1,19-3.57"/><path class="cls-1" d="M37.51,30.9s-2.27,25.23-2.27,30.37"/><path class="cls-1" d="M52.77,32.25S53.68-1.29,86.92,1.12"/><path class="cls-1" d="M57.91,30.9a47.41,47.41,0,0,1,6.88-16.17C67.34,11,70.65,7.69,74.9,6c3.9-1.55,8.39-2.48,12.07.12,4.84,3.41,4.19,9.74,4.19,14.94"/><path class="cls-1" d="M62.79,30.91c1.5-4.2,3.09-8.46,5.92-12a16.84,16.84,0,0,1,8.2-5.78c2.44-.71,5.42-.57,7.1,1.34a7.7,7.7,0,0,1,1.55,3.78A28.9,28.9,0,0,1,84.2,33.9"/><path class="cls-1" d="M66.68,28.93s12.69-15.72,13.9,0"/><ellipse class="cls-1" cx="59.01" cy="53.66" rx="10.84" ry="13.16"/><path class="cls-1" d="M93,44.22S81.76,28,75.61,51.89c0,0-1.26,6.6,5,12.3S93,61.27,93,61.27"/><path class="cls-1" d="M106.34,33.9a134.67,134.67,0,0,0-2.72,15.15c-.14,1.11-.27,2.26-.38,3.43a103.92,103.92,0,0,0-.51,11.71"/><path class="cls-1" d="M122.69,44.22s-9.88,2.07-19.07,4.83"/><path class="cls-1" d="M127.68,57.9s-5,8.11-24.44-5.42"/><path class="cls-1" d="M159,44.22S169.81,39.7,169,52c0,0,1.18,9.08-8.54,9.84,0,0-4.4-.88-1.44-5.93s4.5-3.28,4.5-3.28a9,9,0,0,1,4.64,8.61"/><path class="cls-1" d="M178.87,30.9S175.74,50.47,176.31,63"/><path class="cls-1" d="M64.22,78.06q5.64,7.39,11.29,0"/><path class="cls-1" d="M69.85,53.66c2.15-1.91,4.05-2.36,5.76-1.77"/><path class="cls-2" d="M144.49,55a110.57,110.57,0,0,1,7.12-10.67,4.56,4.56,0,0,1,.56,2.26l.84,12.8a2.86,2.86,0,0,0,.38,1.5,1,1,0,0,0,1.36.32,1.42,1.42,0,0,0,.32-1.27l-.66-9.49-.29-4.22a7,7,0,0,0-.45-2.36,2.32,2.32,0,0,0-1.78-1.45c-1.16-.11-2.07.9-2.76,1.83q-1.74,2.37-3.31,4.84c-1,1.53-1.77,3.52-3,4.84a5.51,5.51,0,0,1-.3-1.18c-.58-2.89-.71-6.09-1.73-8.86-.21-.55-.52-1.15-1.08-1.3-.71-.19-1.36.4-1.84,1-1.53,1.75-2.81,3.78-4.37,5.48a19.59,19.59,0,0,1-.17-2.8,1.05,1.05,0,0,0-1.86-.57c-.7.8,0,3.5,0,4.48-.05,1.84-2.27,12.21.47,12.45,1.84.16.65-2.94.77-4,.3-2.64.31-5.06,1.67-7.4a33.33,33.33,0,0,1,4.87-6c.75,5.07,2.33,10.26,2.24,15.41,0,1.73,2.16.82,2-.92Z"/></svg>
